FFmpeg version SVN-r25716, Copyright (c) 2000-2010 the FFmpeg developers  built on Nov 10 2010 12:23:18 with gcc 4.1.2 20080704 (Red Hat 4.1.2-48)  configuration: --enable-libmp3lame --enable-shared --disable-mmx --arch=x86_64  libavutil     50.33. 0 / 50.33. 0  libavcore      0.12. 1 /  0.12. 1  libavcodec    52.94. 4 / 52.94. 4  libavformat   52.84. 0 / 52.84. 0  libavdevice   52. 2. 2 / 52. 2. 2  libavfilter    1.59. 0 /  1.59. 0  libswscale     0.12. 0 /  0.12. 0Seems stream 0 codec frame rate differs from container frame rate: 1200.00 (1200/1) -> 15.00 (15/1)Input #0, mov,mp4,m4a,3gp,3g2,mj2, from '/RAID10/data/converted_video_files/42159.mov':  Metadata:    major_brand     : qt      minor_version   : 537199360    compatible_brands: qt    Duration: 00:00:04.46, start: 0.000000, bitrate: 16012 kb/s    Stream #0.0(eng): Video: h264, yuv420p, 1000x1000, 16008 kb/s, 15 fps, 15 tbr, 600 tbn, 1200 tbc[buffer @ 0x1d4612e0] w:1000 h:1000 pixfmt:yuv420pOutput #0, flv, to '/RAID10/data/converted_video_files/42159.flv':  Metadata:    encoder         : Lavf52.84.0    Stream #0.0(eng): Video: flv, yuv420p, 1000x1000, q=2-31, 600 kb/s, 1k tbn, 24 tbcStream mapping:  Stream #0.0 -> #0.0Press [q] to stop encodingframe=    7 fps=  0 q=9.7 size=     654kB time=0.46 bitrate=11678.7kbits/s    frame=   17 fps= 15 q=31.0 size=     757kB time=1.12 bitrate=5513.8kbits/s    frame=   28 fps= 17 q=31.0 size=     827kB time=1.83 bitrate=3693.5kbits/s    frame=   39 fps= 18 q=31.0 size=     897kB time=2.58 bitrate=2842.2kbits/s    frame=   50 fps= 18 q=31.0 size=     966kB time=3.29 bitrate=2405.3kbits/s    frame=   60 fps= 19 q=31.0 size=    1009kB time=3.96 bitrate=2087.5kbits/s    frame=   67 fps= 19 q=31.0 Lsize=    1063kB time=4.46 bitrate=1953.7kbits/s    video:1062kB audio:0kB global headers:0kB muxing overhead 0.117867%